<svg width="1566" height="1573" viewBox="0 0 1566 1573" fill="none" xmlns="http://www.w3.org/2000/svg">
<path d="M785.873 0C356.333 0 6.69662 349.647 6.51439 779.392C6.46884 916.763 42.3663 1050.85 110.562 1169.04L0 1573L413.14 1464.61C526.983 1526.71 655.129 1559.42 785.554 1559.47H785.873C1215.37 1559.47 1565 1209.78 1565.19 780.03C1565.28 571.764 1484.28 375.936 1337.14 228.633C1189.99 81.2835 994.333 0.091125 785.873 0ZM785.873 1427.84H785.6C669.388 1427.84 555.364 1396.54 455.917 1337.53L432.273 1323.5L187.141 1387.83L252.558 1148.77L237.16 1124.25C172.335 1021.1 138.078 901.864 138.123 779.483C138.26 422.273 428.857 131.676 786.146 131.676C959.165 131.721 1121.8 199.199 1244.07 321.671C1366.38 444.098 1433.67 606.893 1433.62 779.985C1433.49 1137.19 1142.89 1427.84 785.873 1427.84ZM1141.16 942.643C1121.71 932.892 1025.95 885.781 1008.09 879.265C990.233 872.75 977.25 869.515 964.267 889.016C951.284 908.516 913.974 952.393 902.631 965.378C891.288 978.409 879.899 980.004 860.447 970.254C840.995 960.503 778.22 939.909 703.873 873.57C645.973 821.948 606.886 758.16 595.543 738.659C584.2 719.159 594.313 708.634 604.108 698.929C612.854 690.226 623.56 676.193 633.308 664.803C643.057 653.412 646.292 645.302 652.76 632.271C659.229 619.286 655.995 607.895 651.12 598.145C646.246 588.394 607.296 492.531 591.079 453.529C575.271 415.576 559.236 420.679 547.255 420.086C535.911 419.494 522.928 419.403 509.945 419.403C496.962 419.403 475.87 424.278 458.012 443.779C440.154 463.28 389.861 510.391 389.861 606.255C389.861 702.118 459.652 794.747 469.355 807.732C479.104 820.717 606.659 1017.46 801.999 1101.79C848.466 1121.84 884.728 1133.82 913.017 1142.8C959.666 1157.61 1002.12 1155.51 1035.65 1150.5C1073.05 1144.89 1150.86 1103.39 1167.08 1057.87C1183.3 1012.4 1183.3 973.397 1178.42 965.242C1173.55 957.132 1160.56 952.256 1141.11 942.506L1141.16 942.643Z" fill="#25D366"/>
</svg>
